<?xml version="1.0" encoding="UTF-8" standalone="no"?>
<!-- Created with Inkscape (http://www.inkscape.org/) -->

<svg
   xmlns:dc="http://purl.org/dc/elements/1.1/"
   xmlns:cc="http://creativecommons.org/ns#"
   xmlns:rdf="http://www.w3.org/1999/02/22-rdf-syntax-ns#"
   xmlns:svg="http://www.w3.org/2000/svg"
   xmlns="http://www.w3.org/2000/svg"
   xmlns:sodipodi="http://sodipodi.sourceforge.net/DTD/sodipodi-0.dtd"
   xmlns:inkscape="http://www.inkscape.org/namespaces/inkscape"
   width="440.37112"
   height="230.6875"
   id="svg2"
   version="1.1"
   inkscape:version="0.48.1 r9760"
   sodipodi:docname="drawing.pdf">
  <defs
     id="defs4" />
  <sodipodi:namedview
     id="base"
     pagecolor="#ffffff"
     bordercolor="#666666"
     borderopacity="1.0"
     inkscape:pageopacity="0.0"
     inkscape:pageshadow="2"
     inkscape:zoom="0.98994949"
     inkscape:cx="312.24611"
     inkscape:cy="128.42205"
     inkscape:document-units="px"
     inkscape:current-layer="layer1"
     showgrid="false"
     fit-margin-top="0"
     fit-margin-left="0"
     fit-margin-right="0"
     fit-margin-bottom="0"
     inkscape:window-width="1366"
     inkscape:window-height="711"
     inkscape:window-x="0"
     inkscape:window-y="26"
     inkscape:window-maximized="1" />
  <metadata
     id="metadata7">
    <rdf:RDF>
      <cc:Work
         rdf:about="">
        <dc:format>image/svg+xml</dc:format>
        <dc:type
           rdf:resource="http://purl.org/dc/dcmitype/StillImage" />
        <dc:title></dc:title>
      </cc:Work>
    </rdf:RDF>
  </metadata>
  <g
     inkscape:label="Layer 1"
     inkscape:groupmode="layer"
     id="layer1"
     transform="translate(-62.75389,-31.75)">
    <path
       style="fill:none;stroke:#000000;stroke-width:1px;stroke-linecap:butt;stroke-linejoin:miter;stroke-opacity:1"
       d="m 105.05586,54.331468 0,168.695472 359.61431,-4.04061 -17.17259,-11.11168"
       id="path2985"
       inkscape:connector-curvature="0" />
    <path
       style="fill:none;stroke:#000000;stroke-width:1px;stroke-linecap:butt;stroke-linejoin:miter;stroke-opacity:1"
       d="m 462.64987,218.98633 -12.12183,12.12183"
       id="path2987"
       inkscape:connector-curvature="0" />
    <path
       style="fill:none;stroke:#000000;stroke-width:1px;stroke-linecap:butt;stroke-linejoin:miter;stroke-opacity:1"
       d="m 90.913729,37.158875 c -5.827323,-2.319231 -12.548711,-3.322094 -19.192898,0 -28.821882,14.41094 25.253813,62.915975 25.253813,15.152288 0,-8.195097 1.871225,-11.979433 -6.060915,-15.152288 z"
       id="path2989"
       inkscape:connector-curvature="0" />
    <path
       style="fill:none;stroke:#000000;stroke-width:1px;stroke-linecap:butt;stroke-linejoin:miter;stroke-opacity:1"
       d="m 70.710678,50.290858 c 6.025263,2.22147 11.920819,2.020305 18.182746,2.020305"
       id="path2991"
       inkscape:connector-curvature="0" />
    <path
       style="fill:none;stroke:#000000;stroke-width:1px;stroke-linecap:butt;stroke-linejoin:miter;stroke-opacity:1"
       d="m 456.58895,233.12847 c 25.60536,-6.09542 22.96266,19.31611 46.46702,23.23351"
       id="path2993"
       inkscape:connector-curvature="0" />
    <path
       style="fill:none;stroke:#000000;stroke-width:1px;stroke-linecap:butt;stroke-linejoin:miter;stroke-opacity:1"
       d="m 466.69048,262.42289 c -0.23884,-12.84877 15.17256,-28.09846 24.24366,-35.35534"
       id="path2995"
       inkscape:connector-curvature="0" />
    <path
       style="fill:none;stroke:#000000;stroke-width:1px;stroke-linecap:butt;stroke-linejoin:miter;stroke-opacity:1"
       d="m 463.66002,244.24015 c 9.96834,-0.74792 22.20838,-2.82244 30.30457,-6.06092"
       id="path2997"
       inkscape:connector-curvature="0" />
    <path
       style="fill:none;stroke:#000000;stroke-width:1px;stroke-linecap:butt;stroke-linejoin:miter;stroke-opacity:1"
       d="M 106.06602,156.35687 C 118.38127,79.229863 194.47813,54.977457 262.63966,45.240095"
       id="path3009"
       inkscape:connector-curvature="0" />
    <path
       style="fill:none;stroke:#0000ff;stroke-width:1px;stroke-linecap:butt;stroke-linejoin:miter;stroke-opacity:1"
       d="m 118.18785,121.00154 323.24881,-2.02031"
       id="path3013"
       inkscape:connector-curvature="0" />
    <path
       style="fill:none;stroke:#0000ff;stroke-width:1px;stroke-linecap:butt;stroke-linejoin:miter;stroke-opacity:1"
       d="m 179.80715,147.2655 c 20.69381,-44.11002 11.47688,-23.06264 15.15229,-1.01015"
       id="path3015"
       inkscape:connector-curvature="0" />
    <path
       style="fill:none;stroke:#0000ff;stroke-width:1px;stroke-linecap:butt;stroke-linejoin:miter;stroke-opacity:1"
       d="m 180.81731,137.16398 c 3.83955,1.52472 14.52786,1.01015 15.15228,1.01015"
       id="path3017"
       inkscape:connector-curvature="0" />
    <path
       style="fill:none;stroke:#0000ff;stroke-width:1px;stroke-linecap:butt;stroke-linejoin:miter;stroke-opacity:1"
       d="m 207.08127,125.04215 c -7.80769,10.74646 -7.43452,16.47776 1.01015,23.2335"
       id="path3019"
       inkscape:connector-curvature="0" />
    <path
       style="fill:none;stroke:#0000ff;stroke-width:1px;stroke-linecap:butt;stroke-linejoin:miter;stroke-opacity:1"
       d="m 214.15234,135.14367 c 2.55789,6.4227 -2.6212,14.34676 3.03046,17.17259 8.50844,4.25423 12.35315,-15.38361 8.08122,-11.11167 -3.34183,3.34182 9.7982,0.85153 14.14213,-1.01016"
       id="path3021"
       inkscape:connector-curvature="0" />
    <path
       style="fill:none;stroke:#0000ff;stroke-width:1px;stroke-linecap:butt;stroke-linejoin:miter;stroke-opacity:1"
       d="m 239.40615,125.04215 c 16.02287,3.06162 17.74276,16.55903 10.10153,29.29442"
       id="path3023"
       inkscape:connector-curvature="0" />
    <path
       style="fill:none;stroke:#00ff00;stroke-width:1px;stroke-linecap:butt;stroke-linejoin:miter;stroke-opacity:1"
       d="m 282.84271,41.199485 4.04061,164.654865"
       id="path3025"
       inkscape:connector-curvature="0" />
    <path
       style="fill:none;stroke:#00ff00;stroke-width:1px;stroke-linecap:butt;stroke-linejoin:miter;stroke-opacity:1"
       d="m 302.03561,56.351773 c -20.64514,0.585911 -17.47229,22.441664 2.02031,19.192898"
       id="path3027"
       inkscape:connector-curvature="0" />
    <path
       style="fill:none;stroke:#00ff00;stroke-width:1px;stroke-linecap:butt;stroke-linejoin:miter;stroke-opacity:1"
       d="m 316.17775,57.361925 c -10.5984,10.3696 -3.97399,16.610203 0,23.233509"
       id="path3029"
       inkscape:connector-curvature="0" />
    <path
       style="fill:none;stroke:#00ff00;stroke-width:1px;stroke-linecap:butt;stroke-linejoin:miter;stroke-opacity:1"
       d="m 322.23866,68.473603 c 6.32127,4.867487 10.58196,6.753234 16.16244,10.101526"
       id="path3031"
       inkscape:connector-curvature="0" />
    <path
       style="fill:none;stroke:#00ff00;stroke-width:1px;stroke-linecap:butt;stroke-linejoin:miter;stroke-opacity:1"
       d="m 323.24881,81.605587 c 1.92411,-6.857468 5.47294,-10.439261 10.10153,-14.142136"
       id="path3033"
       inkscape:connector-curvature="0" />
    <path
       style="fill:none;stroke:#00ff00;stroke-width:1px;stroke-linecap:butt;stroke-linejoin:miter;stroke-opacity:1"
       d="m 328.29958,54.331468 c 11.03796,8.919391 27.21499,17.231714 14.14213,30.304576"
       id="path3035"
       inkscape:connector-curvature="0" />
    <path
       style="fill:none;stroke:#00ff00;stroke-width:1px;stroke-linecap:butt;stroke-linejoin:miter;stroke-opacity:1"
       d="m 280.82241,234.13862 c -0.46949,1.87628 6.96632,8.68483 15.15229,14.14214"
       id="path3037"
       inkscape:connector-curvature="0" />
    <path
       style="fill:none;stroke:#00ff00;stroke-width:1px;stroke-linecap:butt;stroke-linejoin:miter;stroke-opacity:1"
       d="m 279.81226,250.30106 c 0.95213,-2.02001 31.22383,-19.76263 12.12183,-12.12183"
       id="path3039"
       inkscape:connector-curvature="0" />
    <path
       style="fill:none;stroke:#000000;stroke-width:1px;stroke-linecap:butt;stroke-linejoin:miter;stroke-opacity:1"
       d="m 400.02041,46.250247 c -37.44764,3.249925 -15.74779,22.024855 6.06091,29.294424"
       id="path3041"
       inkscape:connector-curvature="0" />
    <path
       style="fill:none;stroke:#000000;stroke-width:1px;stroke-linecap:butt;stroke-linejoin:miter;stroke-opacity:1"
       d="m 372.74629,43.21979 c 5.00343,-15.623606 22.47037,3.793595 37.37564,-11.111678"
       id="path3043"
       inkscape:connector-curvature="0" />
    <path
       style="fill:none;stroke:#000000;stroke-width:1px;stroke-linecap:butt;stroke-linejoin:miter;stroke-opacity:1"
       d="M 105.05586,53.321315 468.71078,42.209637 464.67017,222.01679"
       id="path3045"
       inkscape:connector-curvature="0" />
    <path
       style="fill:none;stroke:#000000;stroke-width:1px;stroke-linecap:butt;stroke-linejoin:miter;stroke-opacity:1"
       d="m 107.07617,222.01679 c 33.2408,6.22115 66.92158,-4.80599 98.99495,-8.08122 22.88507,-2.33695 63.14485,-5.40765 74.75129,-6.06092 27.81874,-1.56577 78.94149,-33.0011 89.90358,-38.38579 33.42495,-16.41868 76.08955,-50.16016 98.99495,-78.7919"
       id="path3047"
       inkscape:connector-curvature="0"
       sodipodi:nodetypes="csssc" />
    <path
       style="fill:none;stroke:#000000;stroke-width:1px;stroke-linecap:butt;stroke-linejoin:miter;stroke-opacity:1"
       d="m 42.426407,89.266143 c -7.664687,3.365642 -10.03654,2.046299 -15.152288,0"
       id="path3008"
       inkscape:connector-curvature="0"
       transform="translate(62.75389,31.75)" />
    <path
       style="fill:none;stroke:#000000;stroke-width:1px;stroke-linecap:butt;stroke-linejoin:miter;stroke-opacity:1"
       d="m 1.0101525,86.235686 c 2.0708451,55.096734 30.6164055,-11.423507 15.1522885,4.04061 -6.097657,6.097656 5.904897,4.911139 8.08122,4.04061"
       id="path3010"
       inkscape:connector-curvature="0"
       transform="translate(62.75389,31.75)" />
  </g>
</svg>
